<?xml version="1.0" standalone="no"?>
<!DOCTYPE svg PUBLIC "-//W3C//DTD SVG 20010904//EN"
 "http://www.w3.org/TR/2001/REC-SVG-20010904/DTD/svg10.dtd">
<svg version="1.0" xmlns="http://www.w3.org/2000/svg"
 width="300.000000pt" height="300.000000pt" viewBox="0 0 300.000000 300.000000"
 preserveAspectRatio="xMidYMid meet">
<metadata>
Created by potrace 1.10, written by Peter Selinger 2001-2011
</metadata>
<g transform="translate(0.000000,300.000000) scale(0.100000,-0.100000)"
fill="#000000" stroke="none">
<path d="M1352 2355 c-161 -35 -334 -160 -426 -308 -48 -78 -58 -107 -38 -114
8 -3 12 6 12 26 0 27 6 33 53 55 31 14 98 30 167 41 118 17 195 38 207 57 4 8
0 9 -12 5 -10 -4 -74 -16 -144 -27 -69 -11 -137 -23 -151 -26 l-25 -5 25 26
c24 24 49 29 370 80 190 31 363 58 386 61 27 4 51 1 70 -9 l29 -15 -25 -6
c-14 -2 -81 -13 -150 -24 -109 -17 -120 -20 -88 -27 24 -4 80 0 159 13 114 20
123 20 147 4 l26 -17 -70 -11 c-38 -6 -91 -15 -117 -18 -38 -6 -46 -10 -38
-20 9 -10 33 -9 126 7 92 15 119 16 130 7 8 -7 15 -16 15 -20 0 -4 -42 -13
-92 -20 -51 -7 -100 -16 -108 -20 -33 -19 22 -22 112 -6 51 8 100 15 108 14
33 -3 60 3 60 11 0 16 -79 103 -134 149 -155 129 -379 181 -584 137z m227 -41
c33 -4 61 -10 61 -13 0 -3 -61 -15 -136 -25 -74 -10 -175 -26 -225 -36 -49 -9
-89 -13 -89 -9 0 13 133 61 205 74 85 16 105 17 184 9z m176 -49 c17 -7 23
-14 15 -14 -8 -1 -168 -25 -355 -55 -187 -30 -341 -53 -342 -52 -2 1 11 13 28
25 25 19 75 30 277 62 136 21 254 41 262 43 33 8 87 4 115 -9z"/>
<path d="M1422 2114 c-62 -16 -131 -61 -166 -107 -25 -34 -70 -117 -64 -121 2
-2 71 -13 155 -25 l152 -23 135 56 c74 31 139 56 145 56 23 0 9 24 -47 80 -49
48 -70 62 -126 79 -79 24 -111 25 -184 5z m209 -43 c43 -21 109 -75 109 -90 0
-11 -197 -99 -238 -107 -26 -5 -247 28 -258 38 -8 9 13 53 42 87 32 39 97 81
139 92 54 14 157 4 206 -20z"/>
<path d="M2060 2026 c-67 -20 -140 -49 -464 -180 -49 -20 -102 -36 -118 -36
-30 0 -227 30 -625 96 -223 37 -382 43 -391 17 -2 -9 10 -13 45 -13 26 0 66
-5 88 -12 22 -6 42 -12 45 -13 3 0 11 -4 18 -8 6 -5 17 -5 22 -2 6 3 10 1 10
-4 0 -15 33 -14 50 2 12 10 12 9 2 -5 -19 -25 5 -34 31 -11 19 16 20 16 8 0
-17 -21 -18 -20 41 -39 44 -14 49 -14 64 3 10 11 22 19 27 19 6 0 2 -9 -8 -20
-27 -30 -11 -35 25 -8 l32 23 -39 12 c-37 12 -37 12 22 8 33 -3 61 -9 63 -15
2 -6 10 -6 24 1 15 8 22 8 28 -1 5 -7 16 -10 25 -6 13 5 16 2 11 -9 -4 -12 -2
-14 10 -7 8 5 54 3 107 -5 156 -22 182 -28 178 -44 -2 -8 -4 -20 -5 -27 -1 -7
-20 -30 -41 -52 -22 -22 -33 -40 -26 -40 23 0 90 60 107 95 16 35 40 48 114
64 106 23 110 23 141 -8 34 -35 40 -88 11 -114 -32 -29 -135 -70 -181 -72 -26
-1 -57 -5 -71 -9 -17 -4 -62 6 -145 34 -65 22 -124 40 -131 40 -7 0 -47 -17
-90 -37 -60 -29 -74 -39 -56 -41 33 -5 38 -29 12 -58 -25 -26 -62 -31 -117
-15 -29 9 -43 1 -43 -25 0 -15 79 -34 141 -34 64 0 70 2 64 18 -5 9 -7 24 -7
32 5 68 8 75 42 98 30 20 42 23 85 17 28 -3 60 -13 72 -21 12 -8 30 -14 40
-14 10 0 30 -6 45 -14 15 -8 37 -12 50 -10 21 4 21 4 3 -5 -14 -7 -15 -10 -5
-10 8 -1 21 -14 28 -31 10 -22 21 -30 38 -30 24 0 24 0 8 31 -13 26 -14 33 -2
40 18 12 38 11 38 -1 0 -5 -7 -10 -15 -10 -18 0 -20 -21 -3 -38 16 -16 52 -16
45 1 -17 41 -17 48 1 20 15 -23 26 -30 41 -26 16 4 19 9 11 23 -18 33 -11 50
28 67 100 46 130 91 111 168 -6 25 -15 45 -20 45 -5 0 -9 8 -9 18 0 26 64 46
81 25 22 -26 50 -36 73 -25 11 5 48 21 82 35 60 25 61 25 77 6 20 -23 55 -24
86 -3 21 15 22 21 16 70 -7 61 3 69 33 27 l19 -26 77 12 c74 12 79 12 97 -8
23 -25 24 -40 3 -55 -15 -12 -10 -46 7 -46 17 0 49 40 49 63 0 34 -37 87 -60
87 -11 0 -20 6 -20 13 0 42 -143 49 -260 13z m154 -48 c-9 -15 -33 -8 -44 11
-13 26 -13 29 8 33 17 4 44 -30 36 -44z m69 33 c3 -13 -1 -21 -14 -24 -16 -4
-29 10 -29 34 0 18 38 9 43 -10z m-200 -48 c3 -16 9 -36 12 -45 5 -13 -1 -19
-27 -26 -31 -8 -34 -7 -45 22 -18 49 -15 64 15 74 34 12 38 9 45 -25z m-118
-23 c7 -21 0 -40 -15 -40 -12 0 -23 37 -15 50 10 16 23 12 30 -10z m-60 -31
c8 -25 1 -34 -20 -26 -19 8 -20 47 -1 47 8 0 18 -9 21 -21z m-62 -21 c9 -31
-15 -43 -30 -15 -6 12 -9 25 -7 29 10 16 32 7 37 -14z"/>
<path d="M2034 1948 c3 -13 6 -26 6 -30 0 -15 30 -8 30 6 0 26 -12 46 -27 46
-11 0 -14 -6 -9 -22z"/>
<path d="M1140 2019 c-25 -4 -60 -11 -79 -14 -24 -5 -30 -10 -23 -17 15 -15
150 6 171 26 14 15 13 16 -4 15 -11 -1 -40 -5 -65 -10z"/>
<path d="M1880 2003 c-40 -5 -61 -20 -39 -28 8 -3 37 4 64 14 49 20 45 22 -25
14z"/>
<path d="M942 1989 c-19 -7 -23 -15 -20 -41 3 -32 4 -33 77 -45 41 -7 76 -11
78 -10 1 2 -14 26 -34 55 -38 54 -54 60 -101 41z"/>
<path d="M1117 1946 c-27 -6 -45 -14 -41 -18 13 -14 71 -8 84 7 18 22 12 23
-43 11z"/>
<path d="M2274 1856 c-42 -19 -51 -36 -29 -52 16 -12 23 -10 54 8 20 12 38 23
40 24 5 4 -20 34 -28 34 -3 -1 -20 -7 -37 -14z"/>
<path d="M940 1805 c-31 -33 -6 -34 35 0 27 22 28 24 9 25 -11 0 -31 -11 -44
-25z"/>
<path d="M2200 1822 c0 -6 -7 -12 -16 -14 -13 -2 -11 -7 8 -25 20 -19 27 -21
42 -10 16 12 15 14 -8 36 -15 14 -26 20 -26 13z"/>
<path d="M1014 1813 c-12 -2 -30 -13 -40 -24 -16 -18 -16 -19 3 -19 11 0 30
11 43 25 13 14 22 24 19 24 -2 -1 -14 -4 -25 -6z"/>
<path d="M1026 1785 c-20 -16 -25 -25 -16 -30 7 -5 24 4 42 22 35 35 15 41
-26 8z"/>
<path d="M1095 1791 c-11 -5 -29 -18 -39 -30 -16 -17 -16 -21 -4 -21 9 0 21 7
28 16 8 8 23 20 34 26 16 8 14 3 -8 -21 -38 -40 -14 -41 34 -1 24 20 30 30 18
30 -9 0 -22 2 -30 4 -7 3 -22 1 -33 -3z"/>
<path d="M1507 1784 c-40 -12 -51 -21 -63 -49 -19 -46 -18 -50 13 -79 30 -28
44 -27 22 1 -13 17 -13 17 6 1 12 -10 31 -15 48 -13 108 17 113 20 81 58 -19
23 -25 39 -22 64 5 39 -7 41 -85 17z m58 -54 c0 -21 -6 -26 -43 -34 -23 -5
-45 -6 -48 -3 -11 11 6 42 28 54 38 18 63 12 63 -17z"/>
<path d="M1617 1793 c-24 -23 15 -115 41 -99 17 10 15 58 -4 84 -16 23 -26 27
-37 15z"/>
<path d="M2145 1791 c-3 -6 -11 -9 -16 -6 -5 4 -9 2 -9 -4 0 -19 48 -43 65
-34 13 8 12 12 -9 32 -15 15 -26 19 -31 12z"/>
<path d="M826 1736 c-4 -30 -4 -70 -1 -90 8 -43 12 -42 -123 -21 -87 13 -122
12 -122 -4 0 -3 57 -17 127 -31 l126 -25 14 -54 c51 -205 239 -400 453 -471
90 -30 250 -37 349 -16 149 32 292 122 393 247 43 54 108 172 108 197 0 5 -11
17 -25 26 -20 13 -25 14 -25 3 0 -26 -69 -151 -109 -200 -22 -27 -65 -68 -94
-93 -71 -58 -83 -53 -178 70 -41 52 -77 95 -80 95 -3 1 -11 -11 -18 -26 -12
-27 -12 -27 -52 48 -23 41 -44 77 -48 82 -4 4 -27 -30 -51 -74 l-43 -82 -14
27 c-7 14 -15 26 -17 26 -2 0 -39 -45 -81 -100 -113 -145 -136 -144 -276 8
-30 32 -67 86 -84 119 -18 37 -37 62 -46 62 -22 1 -49 33 -49 57 0 33 18 42
58 33 55 -13 79 -11 97 8 16 16 16 17 -1 23 -11 4 -45 10 -77 14 l-58 8 2 86
c2 87 -2 97 -42 101 -4 1 -10 -23 -13 -53z m687 -353 c-3 -27 -13 -59 -21 -71
-14 -22 -14 -27 3 -58 10 -19 16 -36 14 -38 -9 -7 -139 -54 -139 -50 0 3 6 15
14 27 7 12 39 70 70 130 31 59 59 107 61 107 3 0 2 -21 -2 -47z m-142 -89
c-23 -39 -27 -54 -9 -36 30 30 23 6 -17 -60 -44 -71 -52 -96 -19 -63 11 11 28
15 47 12 70 -10 178 50 162 91 -14 36 -14 59 0 76 14 19 15 19 50 0 32 -17 53
-54 55 -99 1 -14 78 -91 84 -84 3 2 -13 33 -34 67 -45 71 -46 74 -24 65 15 -5
14 -3 0 28 l-17 34 21 -25 c11 -14 39 -47 61 -73 43 -50 50 -75 9 -32 -35 37
-43 30 -20 -16 14 -27 26 -39 36 -35 8 3 23 2 35 -2 19 -8 20 -10 6 -24 -9 -8
-54 -28 -102 -43 -88 -29 -213 -39 -296 -23 -63 12 -145 38 -165 53 -19 13
-19 14 1 29 11 9 29 14 41 11 16 -3 24 3 37 31 23 48 22 49 -20 17 l-38 -28
28 35 c16 19 44 56 64 83 41 56 54 62 24 11z"/>
<path d="M1149 1752 c-46 -41 -21 -47 26 -7 28 24 35 34 23 35 -10 0 -32 -13
-49 -28z"/>
<path d="M2087 1765 c-16 -11 -16 -13 1 -27 29 -25 39 -28 50 -15 8 9 5 18
-12 34 -18 17 -24 19 -39 8z"/>
<path d="M1193 1744 c-32 -24 -42 -44 -25 -44 5 0 26 16 48 35 46 40 26 48
-23 9z"/>
<path d="M956 1706 c12 -90 9 -89 93 -47 l74 38 -87 30 -86 30 6 -51z"/>
<path d="M1230 1725 c-41 -43 -24 -47 23 -5 47 41 59 38 17 -5 -47 -48 -33
-53 23 -8 44 36 45 38 24 45 -41 12 -53 8 -87 -27z"/>
<path d="M1309 1704 c-53 -54 -31 -58 29 -5 32 28 40 40 29 44 -9 3 -31 -12
-58 -39z"/>
<path d="M2002 1731 l-43 -17 24 -22 c23 -22 48 -28 60 -15 4 3 -2 12 -13 20
-11 8 -20 19 -20 24 0 5 13 0 29 -12 18 -13 36 -19 47 -15 15 6 15 9 -6 31
-27 29 -23 29 -78 6z"/>
<path d="M1935 1701 c-3 -6 -11 -8 -17 -5 -6 4 -9 1 -6 -7 7 -20 61 -49 76
-40 9 5 4 15 -17 35 -18 18 -31 24 -36 17z"/>
<path d="M2153 1698 c-27 -13 -33 -54 -7 -44 9 3 22 6 30 6 8 0 14 10 14 25 0
27 -4 29 -37 13z"/>
<path d="M1380 1665 c-19 -14 -27 -25 -19 -25 18 0 66 37 58 44 -3 3 -21 -5
-39 -19z"/>
<path d="M1876 1675 c-22 -17 -20 -22 14 -40 44 -23 62 -7 29 26 -22 21 -30
23 -43 14z"/>
<path d="M1412 1648 c-18 -18 -15 -28 7 -28 26 0 34 15 18 29 -10 8 -17 7 -25
-1z"/>
<path d="M1821 1651 l-25 -7 28 -22 c28 -22 66 -30 66 -14 0 21 -46 49 -69 43z"/>
<path d="M1979 1620 c-42 -21 -105 -49 -140 -60 -35 -12 -66 -24 -69 -26 -9
-10 146 -1 158 9 9 7 11 6 6 -7 -11 -29 14 -17 43 22 29 38 73 56 73 29 0 -9
-14 -17 -34 -21 -28 -5 -46 -21 -46 -42 0 -12 24 -1 41 19 l20 22 -11 -22 c-8
-18 -8 -23 3 -23 8 0 22 10 31 23 l17 22 -12 -23 c-9 -21 -8 -23 8 -20 14 3
17 11 15 41 -3 26 2 45 14 58 20 22 18 25 -16 33 -17 4 -48 -7 -101 -34z"/>
<path d="M2191 1649 c-88 -17 -119 -66 -75 -118 22 -27 54 -37 54 -18 0 5 7 4
15 -3 13 -11 14 -10 9 5 -6 14 -4 16 7 9 24 -15 49 -15 55 1 5 13 9 13 23 3
14 -12 14 -11 2 4 -7 10 -17 16 -21 13 -4 -2 -7 22 -6 55 0 35 -3 60 -9 59 -5
-1 -30 -5 -54 -10z m17 -42 c14 0 14 0 6 -21 -7 -18 -74 -23 -74 -6 0 19 25
39 40 33 8 -3 21 -6 28 -6z m-18 -68 c0 -6 -4 -7 -10 -4 -5 3 -10 1 -10 -5 0
-6 -4 -8 -10 -5 -5 3 -10 1 -10 -5 0 -6 -4 -8 -10 -5 -5 3 -10 11 -10 16 0 6
5 7 10 4 6 -3 10 -1 10 5 0 6 5 8 10 5 6 -3 10 -1 10 5 0 6 5 8 10 5 6 -3 10
-11 10 -16z"/>
<path d="M2288 1653 c-23 -6 -25 -71 -3 -99 13 -16 16 -17 25 -4 13 19 13 67
0 75 -5 3 -10 11 -10 18 0 7 5 6 14 -3 19 -21 28 -110 10 -110 -15 0 -29 -19
-20 -27 3 -4 14 1 25 11 40 36 6 150 -41 139z"/>
<path d="M1739 1608 c-8 -10 -19 -18 -26 -18 -15 0 -16 -9 -4 -28 5 -9 17 -11
35 -6 32 8 43 22 22 30 -9 3 -16 10 -16 15 0 4 13 1 28 -8 17 -10 36 -14 47
-9 17 6 17 8 -6 24 -31 22 -64 22 -80 0z"/>
<path d="M1649 1567 c9 -24 51 -37 51 -15 0 21 -14 34 -37 35 -18 1 -21 -2
-14 -20z"/>
<path d="M1590 1568 c0 -24 21 -46 40 -41 21 6 24 12 12 29 -10 14 -52 25 -52
12z"/>
<path d="M1360 1546 c0 -22 31 -56 51 -56 13 0 18 5 15 13 -3 6 -9 19 -12 29
-7 19 -54 31 -54 14z"/>
<path d="M1308 1531 c8 -25 34 -51 49 -51 16 0 17 11 1 41 -15 27 -60 36 -50
10z"/>
<path d="M2352 1529 c-7 -12 -11 -23 -8 -27 9 -8 46 29 40 39 -8 14 -18 10
-32 -12z"/>
<path d="M1190 1526 c0 -22 31 -56 51 -56 13 0 18 5 15 13 -3 6 -9 19 -12 29
-7 19 -54 31 -54 14z"/>
<path d="M1250 1527 c0 -19 33 -47 54 -47 15 0 15 2 1 30 -16 31 -55 42 -55
17z"/>
<path d="M1077 1511 c10 -27 25 -41 44 -41 11 0 19 4 19 8 0 16 -25 39 -47 45
-17 4 -20 1 -16 -12z"/>
<path d="M1130 1521 c0 -4 7 -17 16 -29 16 -23 60 -32 50 -9 -3 6 -9 19 -12
28 -5 15 -54 24 -54 10z"/>
<path d="M2427 1516 c-4 -10 3 -14 29 -14 19 0 34 5 34 10 0 6 -7 8 -15 4 -8
-3 -15 -1 -15 4 0 15 -27 12 -33 -4z"/>
<path d="M1673 1463 c-87 -3 -103 -6 -103 -20 0 -14 18 -15 176 -10 97 3 173
3 170 0 -8 -8 -176 -42 -209 -43 -31 0 -33 -16 -4 -34 12 -8 54 -1 163 27 146
37 200 59 189 77 -6 9 -140 10 -382 3z"/>
<path d="M1275 1429 c-264 -29 -248 -37 29 -16 102 8 151 16 154 25 2 6 0 11
-5 11 -4 -1 -84 -10 -178 -20z"/>
<path d="M1218 1303 c-53 -10 -78 -20 -78 -29 0 -11 17 -14 69 -14 66 0 71 2
91 30 24 34 27 34 -82 13z"/>
<path d="M1810 1290 l-65 -7 60 -1 c33 -1 67 3 75 8 8 5 11 9 5 8 -5 -1 -39
-4 -75 -8z"/>
<path d="M835 1180 c-18 -20 -18 -21 3 -43 l22 -21 -56 -57 -55 -56 23 -26 23
-26 57 56 58 57 23 -22 24 -22 18 20 c19 21 18 22 -51 91 l-70 70 -19 -21z"/>
<path d="M2066 1121 l-28 -29 22 -15 c12 -8 48 -41 82 -73 l60 -58 53 60 53
59 -20 22 -20 21 -31 -34 -30 -35 -57 56 -56 55 -28 -29z"/>
<path d="M1910 999 c-36 -21 -69 -40 -74 -42 -7 -2 49 -108 93 -176 7 -11 21
-6 72 23 93 52 92 51 84 75 -8 27 -17 26 -65 -4 -45 -28 -60 -31 -60 -11 0 7
13 19 30 26 42 18 54 34 40 59 -11 21 -11 21 -50 -4 -45 -28 -60 -31 -60 -11
0 7 12 19 28 25 52 22 65 37 52 60 -6 12 -14 21 -18 20 -4 0 -36 -18 -72 -40z"/>
<path d="M998 931 c-27 -49 -48 -93 -48 -99 0 -5 8 -12 18 -16 9 -3 23 -9 29
-12 7 -3 18 5 24 19 17 37 43 24 36 -18 -5 -29 -2 -34 29 -49 19 -9 36 -16 38
-16 2 0 2 18 -1 40 -5 32 -2 40 10 40 22 0 57 48 57 80 0 15 -10 35 -22 47
-20 17 -111 73 -120 73 -2 0 -24 -40 -50 -89z m113 -7 c32 -29 -2 -59 -40 -35
-10 7 -11 13 -2 30 14 25 19 26 42 5z"/>
<path d="M1733 917 c-31 -9 -32 -11 -39 -85 l-7 -76 -33 67 c-35 68 -43 74
-90 61 -21 -5 -18 -11 39 -103 l61 -98 34 8 c18 4 35 9 36 11 5 7 39 219 35
222 -2 1 -18 -2 -36 -7z"/>
<path d="M1350 892 c0 -4 -25 -50 -55 -101 -30 -51 -55 -95 -55 -97 0 -2 18
-4 40 -4 30 0 40 4 40 16 0 12 6 15 23 10 12 -3 32 -6 45 -6 15 0 22 -6 22
-19 0 -14 9 -20 38 -23 20 -3 38 -5 39 -4 2 2 -56 218 -59 221 -10 8 -78 14
-78 7z m42 -102 c4 -26 2 -30 -20 -30 -15 0 -22 4 -18 13 3 6 9 20 12 30 10
26 21 20 26 -13z"/>
<path d="M2210 819 c-24 -23 -70 -55 -101 -72 -38 -21 -57 -38 -56 -49 1 -10
4 -18 8 -18 16 0 156 100 184 132 l30 33 -31 -27 c-43 -40 -54 -34 -14 7 45
47 35 44 -20 -6z"/>
<path d="M759 827 c11 -14 11 -17 0 -17 -19 -1 40 -51 125 -107 54 -36 70 -43
77 -32 14 22 12 24 -38 48 -26 13 -77 46 -113 74 -36 29 -59 44 -51 34z m157
-125 c10 -7 0 -3 -22 9 -23 12 -61 39 -85 61 -41 36 -39 35 22 -9 36 -26 74
-54 85 -61z"/>
<path d="M1981 681 c-8 -5 -11 -16 -6 -30 8 -25 18 -27 35 -5 11 12 11 18 -1
29 -9 9 -19 11 -28 6z"/>
<path d="M996 664 c-7 -18 0 -34 15 -34 6 0 8 4 5 9 -3 5 1 12 10 15 8 3 12
10 9 16 -9 15 -32 12 -39 -6z"/>
<path d="M1060 646 c0 -8 -5 -16 -10 -18 -6 -2 -2 -8 9 -15 16 -10 19 -9 23
12 3 14 0 26 -8 29 -8 3 -14 -1 -14 -8z"/>
<path d="M1106 624 c-10 -26 -7 -32 14 -27 27 7 36 23 19 34 -20 12 -26 11
-33 -7z"/>
<path d="M1870 631 c0 -24 13 -38 29 -34 25 6 15 43 -10 43 -11 0 -19 -4 -19
-9z"/>
<path d="M1814 605 c-4 -9 -2 -21 4 -27 15 -15 44 -1 40 19 -4 23 -36 29 -44
8z"/>
<path d="M1209 594 c-10 -12 -9 -18 3 -31 19 -18 38 -10 38 17 0 24 -25 33
-41 14z"/>
<path d="M1750 590 c0 -5 -7 -7 -16 -3 -14 5 -14 3 -3 -16 14 -22 29 -28 29
-12 0 5 3 16 6 25 3 9 1 16 -5 16 -6 0 -11 -4 -11 -10z"/>
<path d="M1277 583 c-4 -3 -7 -16 -6 -27 0 -12 3 -15 6 -8 3 9 9 10 17 3 8 -7
12 -3 14 15 2 23 -16 33 -31 17z"/>
<path d="M1370 572 c0 -6 -2 -16 -5 -24 -3 -8 3 -13 20 -14 21 -2 25 2 24 25
0 14 -3 20 -6 13 -4 -10 -8 -10 -19 -1 -9 7 -14 8 -14 1z"/>
<path d="M1610 569 c0 -6 -7 -9 -15 -5 -10 4 -15 -1 -15 -16 0 -16 3 -18 14
-9 11 9 15 9 19 -1 3 -7 6 -1 6 15 1 15 -1 27 -4 27 -3 0 -5 -5 -5 -11z"/>
<path d="M1640 560 c0 -11 7 -23 15 -27 21 -7 25 -2 18 25 -7 28 -33 29 -33 2z"/>
<path d="M1432 548 c3 -24 29 -31 36 -10 2 7 -2 10 -12 6 -9 -3 -16 -1 -16 4
0 6 8 13 18 15 12 3 11 5 -6 6 -19 1 -23 -3 -20 -21z"/>
</g>
</svg>
